<svg width="148" height="63" viewBox="0 0 148 63" fill="none" xmlns="http://www.w3.org/2000/svg">
<path d="M19.38 22.51C19.38 23.71 19.07 24.72 18.45 25.54C17.83 26.34 16.99 26.95 15.93 27.37C14.89 27.79 13.75 28 12.51 28H2.22V6.7H13.62C14.62 6.7 15.48 6.97 16.2 7.51C16.94 8.03 17.5 8.71 17.88 9.55C18.28 10.37 18.48 11.23 18.48 12.13C18.48 13.15 18.22 14.12 17.7 15.04C17.18 15.96 16.42 16.64 15.42 17.08C16.64 17.44 17.6 18.09 18.3 19.03C19.02 19.97 19.38 21.13 19.38 22.51ZM15.21 21.73C15.21 21.19 15.1 20.71 14.88 20.29C14.66 19.85 14.36 19.51 13.98 19.27C13.62 19.01 13.2 18.88 12.72 18.88H6.36V24.49H12.51C13.01 24.49 13.46 24.37 13.86 24.13C14.28 23.87 14.61 23.53 14.85 23.11C15.09 22.69 15.21 22.23 15.21 21.73ZM6.36 10.24V15.61H11.88C12.34 15.61 12.76 15.5 13.14 15.28C13.52 15.06 13.82 14.75 14.04 14.35C14.28 13.95 14.4 13.47 14.4 12.91C14.4 12.37 14.29 11.9 14.07 11.5C13.87 11.1 13.59 10.79 13.23 10.57C12.89 10.35 12.5 10.24 12.06 10.24H6.36ZM21.4106 28V6.7H30.8306C31.8106 6.7 32.7106 6.9 33.5306 7.3C34.3706 7.7 35.0906 8.24 35.6906 8.92C36.3106 9.6 36.7806 10.36 37.1006 11.2C37.4406 12.04 37.6106 12.9 37.6106 13.78C37.6106 14.68 37.4506 15.55 37.1306 16.39C36.8306 17.21 36.3906 17.93 35.8106 18.55C35.2306 19.17 34.5506 19.65 33.7706 19.99L38.6306 28H34.0706L29.6906 20.86H25.5506V28H21.4106ZM25.5506 17.23H30.7406C31.2606 17.23 31.7206 17.08 32.1206 16.78C32.5206 16.46 32.8406 16.04 33.0806 15.52C33.3206 15 33.4406 14.42 33.4406 13.78C33.4406 13.1 33.3006 12.51 33.0206 12.01C32.7406 11.49 32.3806 11.08 31.9406 10.78C31.5206 10.48 31.0606 10.33 30.5606 10.33H25.5506V17.23ZM40.1618 28V6.7H44.3018V28H40.1618ZM47.5458 28V6.7H51.6858V24.37H62.5458V28H47.5458ZM63.8653 28V6.7H68.0053V28H63.8653ZM75.3893 14.32V28H71.2493V6.7H74.5493L85.5593 20.74V6.73H89.6993V28H86.2493L75.3893 14.32ZM92.9302 28V6.7H97.0702V28H92.9302Z" fill="white"/>
<path d="M52.1798 56.24C50.6798 56.24 49.2298 56 47.8298 55.52C46.4298 55.02 45.2398 54.34 44.2598 53.48L46.8398 49.91C46.9598 50.09 47.1998 50.33 47.5598 50.63C47.9198 50.91 48.3798 51.2 48.9398 51.5C49.4998 51.78 50.1298 52.02 50.8298 52.22C51.5298 52.42 52.2698 52.52 53.0498 52.52C53.8498 52.52 54.5098 52.42 55.0298 52.22C55.5698 52 55.9698 51.7 56.2298 51.32C56.4898 50.92 56.6198 50.46 56.6198 49.94C56.6198 49.4 56.4198 48.97 56.0198 48.65C55.6398 48.33 55.1098 48.05 54.4298 47.81C53.7498 47.55 52.9698 47.28 52.0898 47C51.0898 46.68 50.2498 46.32 49.5698 45.92C48.8898 45.52 48.3698 45.04 48.0098 44.48C47.6698 43.9 47.4998 43.21 47.4998 42.41C47.4998 41.17 47.7398 40.06 48.2198 39.08C48.7198 38.1 49.3898 37.28 50.2298 36.62C51.0898 35.94 52.0598 35.43 53.1398 35.09C54.2198 34.73 55.3498 34.55 56.5298 34.55C57.4698 34.55 58.3398 34.66 59.1398 34.88C59.9598 35.1 60.6998 35.39 61.3598 35.75C62.0398 36.11 62.6298 36.5 63.1298 36.92L60.5798 40.28C60.5198 40.14 60.3398 39.95 60.0398 39.71C59.7398 39.47 59.3598 39.24 58.8998 39.02C58.4398 38.8 57.9298 38.61 57.3698 38.45C56.8098 38.27 56.2298 38.18 55.6298 38.18C54.8498 38.18 54.1798 38.3 53.6198 38.54C53.0798 38.78 52.6798 39.11 52.4198 39.53C52.1598 39.95 52.0298 40.45 52.0298 41.03C52.0298 41.47 52.1798 41.84 52.4798 42.14C52.7998 42.44 53.2498 42.7 53.8298 42.92C54.4098 43.12 55.1198 43.35 55.9598 43.61C57.0198 43.91 57.9398 44.27 58.7198 44.69C59.5198 45.11 60.1398 45.64 60.5798 46.28C61.0198 46.9 61.2398 47.7 61.2398 48.68C61.2398 50.02 60.9798 51.17 60.4598 52.13C59.9598 53.09 59.2798 53.87 58.4198 54.47C57.5598 55.07 56.5898 55.52 55.5098 55.82C54.4498 56.1 53.3398 56.24 52.1798 56.24ZM70.1138 38.33H63.7238L64.4738 34.7H81.3638L80.5838 38.33H74.2238L70.4738 56H66.3338L70.1138 38.33ZM86.8477 56.15C85.1477 56.15 83.7777 55.83 82.7377 55.19C81.7177 54.55 80.9777 53.69 80.5177 52.61C80.0577 51.53 79.8277 50.31 79.8277 48.95C79.8277 48.41 79.8577 47.86 79.9177 47.3C79.9777 46.72 80.0777 46.14 80.2177 45.56L82.5277 34.7H86.6377L84.3277 45.56C84.2277 46.02 84.1477 46.47 84.0877 46.91C84.0477 47.35 84.0277 47.79 84.0277 48.23C84.0277 49.03 84.1377 49.75 84.3577 50.39C84.5777 51.03 84.9477 51.54 85.4677 51.92C86.0077 52.3 86.7177 52.49 87.5977 52.49C88.5177 52.49 89.3177 52.3 89.9977 51.92C90.6977 51.52 91.2977 50.99 91.7977 50.33C92.3177 49.67 92.7377 48.93 93.0577 48.11C93.3977 47.27 93.6677 46.42 93.8677 45.56L96.1777 34.7H100.288L97.9777 45.56C97.6777 47.02 97.2177 48.39 96.5977 49.67C95.9777 50.95 95.2077 52.08 94.2877 53.06C93.3677 54.02 92.2877 54.78 91.0477 55.34C89.8077 55.88 88.4077 56.15 86.8477 56.15ZM103.219 34.7H110.629C112.469 34.7 113.979 35.07 115.159 35.81C116.339 36.53 117.219 37.51 117.799 38.75C118.379 39.99 118.669 41.39 118.669 42.95C118.669 44.83 118.349 46.57 117.709 48.17C117.089 49.75 116.209 51.13 115.069 52.31C113.949 53.47 112.619 54.38 111.079 55.04C109.559 55.68 107.899 56 106.099 56H98.6895L103.219 34.7ZM106.849 52.37C108.009 52.37 109.049 52.14 109.969 51.68C110.909 51.2 111.709 50.55 112.369 49.73C113.029 48.89 113.529 47.94 113.869 46.88C114.229 45.82 114.409 44.71 114.409 43.55C114.409 42.51 114.239 41.6 113.899 40.82C113.559 40.04 113.049 39.43 112.369 38.99C111.709 38.55 110.869 38.33 109.849 38.33H106.549L103.579 52.37H106.849ZM122.791 34.73H126.901L122.371 56H118.261L122.791 34.73ZM134.286 56.15C133.026 56.15 131.906 55.91 130.926 55.43C129.946 54.95 129.116 54.3 128.436 53.48C127.776 52.64 127.276 51.69 126.936 50.63C126.596 49.57 126.426 48.46 126.426 47.3C126.426 46.02 126.646 44.76 127.086 43.52C127.526 42.26 128.136 41.1 128.916 40.04C129.716 38.96 130.646 38.01 131.706 37.19C132.766 36.37 133.906 35.73 135.126 35.27C136.366 34.79 137.646 34.55 138.966 34.55C140.206 34.55 141.306 34.8 142.266 35.3C143.246 35.78 144.066 36.44 144.726 37.28C145.406 38.12 145.906 39.07 146.226 40.13C146.566 41.19 146.736 42.3 146.736 43.46C146.736 44.74 146.516 46 146.076 47.24C145.636 48.46 145.026 49.61 144.246 50.69C143.466 51.77 142.546 52.72 141.486 53.54C140.446 54.36 139.306 55 138.066 55.46C136.846 55.92 135.586 56.15 134.286 56.15ZM135.096 52.49C136.196 52.49 137.196 52.23 138.096 51.71C139.016 51.17 139.806 50.47 140.466 49.61C141.146 48.75 141.656 47.81 141.996 46.79C142.356 45.75 142.536 44.74 142.536 43.76C142.536 42.76 142.366 41.85 142.026 41.03C141.706 40.19 141.216 39.52 140.556 39.02C139.916 38.5 139.096 38.24 138.096 38.24C136.996 38.24 135.986 38.5 135.066 39.02C134.166 39.54 133.386 40.23 132.726 41.09C132.066 41.95 131.546 42.9 131.166 43.94C130.806 44.96 130.626 45.97 130.626 46.97C130.626 47.95 130.786 48.86 131.106 49.7C131.446 50.54 131.946 51.22 132.606 51.74C133.266 52.24 134.096 52.49 135.096 52.49Z" fill="white"/>
</svg>
